<?xml version="1.0" encoding="UTF-8"?>
<svg width="32px" height="45px" viewBox="0 0 32 45" version="1.1" xmlns="http://www.w3.org/2000/svg" xmlns:xlink="http://www.w3.org/1999/xlink">
    <!-- Generator: Sketch 44.1 (41455) - http://www.bohemiancoding.com/sketch -->
    <title>svg_PinBlue</title>
    <desc>Created with Sketch.</desc>
    <defs></defs>
    <g id="Page-1" stroke="none" stroke-width="1" fill="none" fill-rule="evenodd">
        <g id="svg_PinBlue">
            <g id="path-1-link" fill="#FF224D">
                <path d="M16.8484446,43.5843364 C16.586748,43.8809924 16.2114199,44.0503134 15.8154315,44.0503134 C15.3987828,44.0406772 15.0413603,43.8789275 14.7803523,43.5808949 C14.1763839,42.892598 0,26.5964806 0,15.8542308 C0,7.11217188 7.10506451,0 15.8395351,0 C24.5333739,0 31.6391271,7.10941869 31.6783816,15.8473479 C31.7279662,26.5957923 17.4558564,42.8960395 16.8484446,43.5843364 Z M22.0865326,15.9707754 C22.0865326,12.5278263 19.2844253,9.7264787 15.8395827,9.7264787 C12.3947401,9.7264787 9.5918519,12.5278263 9.5918519,15.9707754 C9.5918519,19.4145051 12.3947401,22.2150722 15.8395827,22.2150722 C19.2844253,22.2150722 22.0865326,19.4145051 22.0865326,15.9707754 Z" id="path-1"></path>
            </g>
            <path d="M16.2860111,43.0881826 L16.2861031,43.0880784 C16.4644794,42.8859489 16.7389496,42.567818 17.0883079,42.1527727 C17.6274026,41.5123165 18.2163835,40.7929594 18.841337,40.0053678 C20.5784077,37.8162414 22.2959717,35.4780133 23.8840746,33.074895 C28.3170596,26.3668992 30.9492709,20.3772422 30.9283891,15.8507171 C30.890986,7.52489415 24.1196825,0.75 15.8395351,0.75 C7.51961535,0.75 0.75,7.52604817 0.75,15.8542308 C0.75,20.3803093 3.37874466,26.368792 7.79028755,33.0756386 C9.3705926,35.4781686 11.0785582,37.8158937 12.8049583,40.0043434 C13.4261879,40.7918374 14.0115762,41.5111238 14.5471004,42.1512587 C14.8946358,42.5666827 15.1698002,42.8875986 15.3445694,43.0867704 C15.464797,43.2240526 15.622773,43.2956571 15.8154315,43.3003134 C15.9962456,43.3003134 16.1667149,43.2234152 16.2860111,43.0881826 Z M22.8365326,15.9707754 C22.8365326,19.8286756 19.698682,22.9650722 15.8395827,22.9650722 C11.9803637,22.9650722 8.84185186,19.8285561 8.84185186,15.9707754 C8.84185186,12.1135204 11.9806188,8.9764787 15.8395827,8.9764787 C19.698427,8.9764787 22.8365326,12.1134009 22.8365326,15.9707754 Z" id="Shape" stroke="#FFFFFF" stroke-width="1.5"></path>
        </g>
    </g>
</svg>